<svg xmlns="http://www.w3.org/2000/svg" viewBox="0 0 320 214" role="img" aria-label="A worried finance clerk at his desk. His screen says: files locked, pay to unlock."><title>A worried finance clerk at his desk. His screen says: files locked, pay to unlock.</title><ellipse cx="160" cy="204" rx="150" ry="14" fill="#D9D5D2"/><ellipse cx="160" cy="112" rx="140" ry="96" fill="#EDDDCD"/><rect x="110" y="20" width="90" height="90" rx="5" fill="#262A20"/><rect x="115" y="25" width="80" height="76" rx="2" fill="#FBF8F4"/><g transform="translate(155 48) scale(1.1)"><path d="M-9 -2 L-9 -10 C-9 -22 9 -22 9 -10 L9 -2" fill="none" stroke="#9A3B2E" stroke-width="4"/><rect x="-13" y="-3" width="26" height="20" rx="3" fill="#9A3B2E"/><circle cx="0" cy="5" r="3" fill="#FBF8F4"/><rect x="-1.2" y="5" width="2.4" height="6" fill="#FBF8F4"/></g><text x="155" y="82" font-family="Open Sans, Segoe UI, Arial, sans-serif" font-size="9.5" font-weight="800" fill="#9A3B2E" text-anchor="middle">FILES LOCKED</text><text x="155" y="95" font-family="Open Sans, Segoe UI, Arial, sans-serif" font-size="8.5" font-weight="600" fill="#262A20" text-anchor="middle">Pay to unlock</text><rect x="149.0" y="110" width="12" height="12" fill="#262A20"/><rect x="135.0" y="122" width="40" height="5" rx="2" fill="#262A20"/><g transform="translate(190 50) scale(1.0)"><rect x="53" y="42" width="14" height="20" fill="#8D5A3B"/><path d="M53 50 Q60 56 67 50 L67 56 Q60 60 53 56 Z" fill="#70482F"/><path d="M36 72 Q36 59 48 57 L72 57 Q84 59 84 72 L83 122 Q60 127 37 122 Z" fill="#D9D5D2"/><path d="M52 57 L60 70 L68 57 L64 57 L60 64 L56 57 Z" fill="#B8B5B2"/><path d="M60 70 L60 120" stroke="#ADAAA8" stroke-width="1.2"/><circle cx="60" cy="78" r="1.2" fill="#979593"/><circle cx="60" cy="90" r="1.2" fill="#979593"/><circle cx="60" cy="102" r="1.2" fill="#979593"/><path d="M38 66 L33 96" stroke="#D9D5D2" stroke-width="12" stroke-linecap="round"/><path d="M33 96 L50 112" stroke="#8D5A3B" stroke-width="9" stroke-linecap="round"/><path d="M82 66 L87 96" stroke="#D9D5D2" stroke-width="12" stroke-linecap="round"/><path d="M87 96 L70 112" stroke="#8D5A3B" stroke-width="9" stroke-linecap="round"/><circle cx="50" cy="115" r="5.8" fill="#8D5A3B"/><path d="M46 117 Q50 120 54 117" stroke="#70482F" stroke-width="1" fill="none"/><circle cx="70" cy="115" r="5.8" fill="#8D5A3B"/><path d="M66 117 Q70 120 74 117" stroke="#70482F" stroke-width="1" fill="none"/><ellipse cx="43" cy="32" rx="3.2" ry="5" fill="#70482F"/><ellipse cx="77" cy="32" rx="3.2" ry="5" fill="#70482F"/><ellipse cx="60" cy="30" rx="17" ry="19" fill="#8D5A3B"/><path d="M42.5 30 C40 11 52 7 60 7 C70 7 81 11 77.5 30 C76 20 70 16 60 16 C51 16 45 20 42.5 30 Z" fill="#1F1B17"/><ellipse cx="53.5" cy="31" rx="1.9" ry="2.3" fill="#262A20"/><ellipse cx="66.5" cy="31" rx="1.9" ry="2.3" fill="#262A20"/><path d="M50 24 L56 23 M64 23 L70 24" stroke="#1F1B17" stroke-width="1.8" stroke-linecap="round"/><path d="M60 31 Q62.8 37 59.4 37.6" stroke="#70482F" stroke-width="1.3" fill="none" stroke-linecap="round"/><ellipse cx="60" cy="43" rx="2.6" ry="3.2" fill="#262A20"/></g><rect x="60" y="148" width="250" height="10" rx="2" fill="#AB8B68"/><rect x="66" y="158" width="238" height="52" fill="#9C7F5F"/><rect x="72" y="166" width="88" height="4" rx="2" fill="#7C654C"/></svg>